<svg width="150" height="42" viewBox="0 0 150 42" fill="none" xmlns="http://www.w3.org/2000/svg">
<g id="Logo">
<g id="Vector">
<path d="M35.2087 17.7587C35.2087 17.6482 35.2285 17.5433 35.2554 17.4416L22.3721 24.8118C21.7539 25.1683 21.1001 25.4357 20.4289 25.6187V27.4849C21.4262 27.2641 22.3887 26.8949 23.2776 26.383L36.24 18.9663C35.6551 18.8708 35.2087 18.3684 35.2087 17.7587Z" fill="#B8E7FF"/>
<path d="M35.2087 24.5289C35.2087 24.4035 35.2332 24.2844 35.268 24.17L22.3721 31.5481C21.7539 31.9046 21.1001 32.172 20.4289 32.355V34.2212C21.4262 34.0004 22.3887 33.6312 23.2776 33.1193L36.1901 25.731C35.6298 25.6158 35.2087 25.1212 35.2087 24.5289Z" fill="#B8E7FF"/>
<path d="M35.2087 31.2991C35.2087 31.158 35.2372 31.0247 35.2807 30.8985L22.3721 38.2844C21.7539 38.641 21.1001 38.9084 20.4289 39.0914V40.9576C21.4262 40.7367 22.3887 40.3676 23.2776 39.8557L36.1513 32.4894C35.6108 32.36 35.2087 31.8773 35.2087 31.2991Z" fill="#B8E7FF"/>
<path d="M18.2505 30.8374C17.1242 30.8374 16.0129 30.5408 15.0322 29.9768L0 21.3919V25.5684L13.2189 33.1185C14.7465 33.9964 16.4862 34.4609 18.2505 34.4609C18.3494 34.4609 18.4484 34.4586 18.5473 34.4562V30.8287C18.4484 30.8318 18.3494 30.8374 18.2505 30.8374Z" fill="#38A7FF"/>
<path d="M18.2505 24.1011C17.1242 24.1011 16.0129 23.8045 15.0322 23.2405L0 14.6556V18.8313L13.2189 26.3814C14.7465 27.2601 16.4862 27.7246 18.2505 27.7246C18.3494 27.7246 18.4484 27.7223 18.5473 27.7199V24.0924C18.4484 24.0963 18.3494 24.1011 18.2505 24.1011Z" fill="#38A7FF"/>
<path d="M22.3727 18.1929C21.1862 18.8751 19.8723 19.2403 18.549 19.2877C17.2256 19.2396 15.9109 18.8751 14.7244 18.1929L2.07224 10.9544L14.7244 3.71508C15.9109 3.03201 17.2256 2.6676 18.5482 2.62028C19.8716 2.6676 21.1862 3.0328 22.3727 3.71508L33.1371 9.87376L34.9624 8.82943L23.2774 2.14386C21.84 1.31645 20.2103 0.857386 18.549 0.807693C18.5482 0.807693 18.5482 0.807693 18.5474 0.807693C18.5466 0.807693 18.5466 0.807693 18.5458 0.807693C16.8852 0.857386 15.2555 1.31723 13.8173 2.14386L0.261277 9.90136V12.0066L13.8189 19.7641C15.2563 20.5915 16.886 21.0506 18.5466 21.1002H18.5482C20.2095 21.0506 21.84 20.5915 23.2774 19.7641L36.835 12.0066V9.91793L22.3727 18.1929Z" fill="#B8E7FF"/>
<path d="M18.2505 37.5687C17.1242 37.5687 16.0129 37.2721 15.0322 36.7082L0 28.1233V32.299L13.2189 39.849C14.7465 40.7277 16.4862 41.1923 18.2505 41.1923C18.3494 41.1923 18.4484 41.1899 18.5473 41.1876V37.56C18.4484 37.5632 18.3494 37.5687 18.2505 37.5687Z" fill="#38A7FF"/>
<path fill-rule="evenodd" clip-rule="evenodd" d="M34.9627 24.5289C34.9627 23.7157 35.6244 23.0563 36.4404 23.0563C37.2565 23.0563 37.9181 23.7157 37.9181 24.5289C37.9189 25.3429 37.2572 26.0023 36.4404 26.0023C35.6236 26.0023 34.9627 25.3429 34.9627 24.5289ZM37.1338 24.5289C37.1338 24.148 36.8227 23.838 36.4404 23.838C36.0581 23.838 35.7471 24.148 35.7471 24.5289C35.7471 24.9107 36.0581 25.2207 36.4404 25.2207C36.8227 25.2199 37.1338 24.9099 37.1338 24.5289Z" fill="#38A7FF"/>
<path fill-rule="evenodd" clip-rule="evenodd" d="M34.9627 31.299C34.9627 30.4858 35.6244 29.8264 36.4404 29.8264C37.2565 29.8264 37.9181 30.4858 37.9181 31.299C37.9189 32.113 37.2572 32.7724 36.4404 32.7724C35.6236 32.7724 34.9627 32.113 34.9627 31.299ZM37.1338 31.299C37.1338 30.918 36.8227 30.6081 36.4404 30.6081C36.0581 30.6081 35.7471 30.918 35.7471 31.299C35.7471 31.6808 36.0581 31.99 36.4404 31.99C36.8227 31.99 37.1338 31.6808 37.1338 31.299Z" fill="#38A7FF"/>
<path fill-rule="evenodd" clip-rule="evenodd" d="M34.9627 17.7589C34.9627 16.9457 35.6244 16.2855 36.4404 16.2855C37.2565 16.2855 37.9181 16.9449 37.9181 17.7589C37.9181 18.5729 37.2572 19.2316 36.4404 19.2316C35.6236 19.2316 34.9627 18.5722 34.9627 17.7589ZM37.1338 17.7589C37.1338 17.3772 36.8227 17.0672 36.4404 17.0672C36.0581 17.0672 35.7471 17.3772 35.7471 17.7589C35.7471 18.1399 36.0581 18.4499 36.4404 18.4499C36.8227 18.4499 37.1338 18.1399 37.1338 17.7589Z" fill="#38A7FF"/>
<path d="M54.203 25.2649C54.2007 25.2688 54.1983 25.2712 54.1959 25.2743C54.1943 25.2712 54.192 25.2688 54.1904 25.2649L47.947 13.7063H44.4501L51.5911 26.8022C51.9433 27.4474 52.2987 27.8757 52.658 28.0863C53.0174 28.2969 53.4717 28.4018 54.021 28.4018H54.6684C55.1188 28.4018 55.5138 28.2969 55.8517 28.0863C56.1897 27.8757 56.5348 27.4474 56.887 26.8022L63.9631 13.7071H60.3886L54.203 25.2649Z" fill="#38A7FF"/>
<path d="M76.7042 25.4755C76.1549 25.4755 75.7005 25.4305 75.3412 25.3382C74.9819 25.2467 74.693 25.0929 74.4745 24.8752C74.2561 24.6575 74.1049 24.3625 74.0202 23.991C73.9355 23.6195 73.8935 23.1597 73.8935 22.6123V22.2542H85.6537V19.6647H73.8943V19.4541C73.8943 18.9067 73.9363 18.4468 74.021 18.0753C74.1057 17.7038 74.2568 17.4088 74.4753 17.1911C74.6937 16.9734 74.9827 16.8196 75.342 16.7281C75.7013 16.6366 76.1557 16.5909 76.705 16.5909H85.6553V13.7071H75.5826C74.9605 13.7537 74.4001 13.8381 73.9149 13.9706C73.1685 14.1741 72.5591 14.4967 72.0873 14.9392C71.6148 15.3817 71.2705 15.9535 71.052 16.6547C70.8344 17.356 70.7252 18.2126 70.7252 19.2222V22.8442C70.7252 23.8546 70.8344 24.7143 71.052 25.4226C71.2705 26.1317 71.6156 26.7068 72.0873 27.1492C72.5591 27.5917 73.1685 27.9112 73.9149 28.1076C74.6613 28.304 75.5699 28.4018 76.6409 28.4018H85.6545V25.4755H76.7042Z" fill="#38A7FF"/>
<path d="M104.034 16.6753V13.7063H87.8147V16.6753H94.2662V28.4018H97.4987V16.6753H104.034Z" fill="#38A7FF"/>
<path d="M125.434 28.4017H128.667V13.7062H125.434V28.4017Z" fill="#38A7FF"/>
<path d="M65.0063 28.4017H68.2387V13.7062H65.0063V28.4017Z" fill="#38A7FF"/>
<path d="M140.471 18.8496L140.466 18.8433L138.163 16.4013L135.709 13.7061H131.444L137.929 20.6535L130.577 28.4016H134.851L140.276 22.6539L145.677 28.4016H149.85L142.798 20.8681L150 13.7069H145.662L140.471 18.8496Z" fill="#38A7FF"/>
<path d="M119.379 13.6646V25.1127L111.571 14.9069C111.374 14.6403 111.198 14.4265 111.043 14.2649C110.888 14.1032 110.727 13.977 110.557 13.8855C110.388 13.7947 110.191 13.7348 109.965 13.7072C109.74 13.6796 109.459 13.6654 109.121 13.6654H107.96C107.311 13.6654 106.833 13.816 106.523 14.1181C106.213 14.4194 106.058 14.9976 106.058 15.8542V28.4019H109.227V16.9687L117.044 27.1596C117.254 27.4404 117.442 27.662 117.603 27.8229C117.765 27.9838 117.93 28.1069 118.1 28.1913C118.269 28.2757 118.462 28.3317 118.68 28.3593C118.899 28.3877 119.17 28.4019 119.494 28.4019H120.625C121.273 28.4019 121.751 28.2512 122.062 27.9491C122.372 27.6478 122.527 27.0681 122.527 26.2123V13.6646H119.379Z" fill="#38A7FF"/>
</g>
</g>
</svg>
